<?xml version="1.0" encoding="utf-8"?>
<!-- Generator: Adobe Illustrator 16.0.0, SVG Export Plug-In . SVG Version: 6.00 Build 0)  -->
<!DOCTYPE svg PUBLIC "-//W3C//DTD SVG 1.1//EN" "http://www.w3.org/Graphics/SVG/1.1/DTD/svg11.dtd">
<svg version="1.1" id="Capa_1" xmlns="http://www.w3.org/2000/svg" xmlns:xlink="http://www.w3.org/1999/xlink" x="0px" y="0px"
	 width="50px" height="50px" viewBox="0 0 50 50" enable-background="new 0 0 50 50" xml:space="preserve">
<path fill="#13A7AD" d="M25,50c-0.039-0.051-0.075-0.1-0.113-0.15C24.848,49.9,24.812,49.95,24.773,50H25z"/>
<path opacity="0.9" fill="#13A7AD" enable-background="new    " d="M25,0C15.216,0,7.283,7.932,7.283,17.717
	c0,1.912,0.308,3.753,0.868,5.479c0,0,1.491,6.693,16.737,26.656c8.73-11.433,12.947-18.506,14.959-22.471
	c1.812-2.779,2.868-6.098,2.868-9.664C42.717,7.932,34.785,0,25,0z M23.435,22.046H21.94h-0.258h-9.123
	c0.032-0.137,0.194-0.784,0.679-1.349c0.016-0.024,0.048-0.057,0.065-0.081c0.59-0.566,1.438-0.937,2.141-1.317
	c0.388-0.202,0.784-0.404,1.18-0.606c0.542-0.283,1.245-0.525,1.479-1.115c0.218-0.541,0.218-1.14,0.25-1.713h-1.285l0.315-0.388
	c0,0-1.43-0.283-1.43-0.396c0-0.104,0.124-0.239,0.178-0.32c0.086-0.126,0.185-0.245,0.27-0.372
	c0.097-0.146-0.052-0.484-0.101-0.643c-0.079-0.252-0.172-0.5-0.243-0.755c-0.207-0.739-0.186-1.556-0.049-2.307
	c0.133-0.729,0.394-1.446,0.802-2.068c0.372-0.567,0.881-1.063,1.518-1.318c0.306-0.122,0.634-0.185,0.963-0.185
	c0.564-0.275,1.198-0.438,1.828-0.345c0.535,0.08,1.02,0.34,1.418,0.7c0.424,0.383,0.752,0.863,1.013,1.369
	c0.271,0.526,0.472,1.089,0.614,1.664c0.127,0.517,0.21,1.05,0.219,1.584c0.004,0.23,0.01,0.49-0.046,0.713
	c-0.125,0.5-0.385,0.964-0.444,1.497c-0.013,0.125,0.191,0.315,0.262,0.417c0.063,0.091,0.211,0.25,0.211,0.369
	c0,0.114-1.43,0.396-1.43,0.396l0.323,0.388h-1.293c0.041,0.573,0.041,1.172,0.259,1.713c0.226,0.59,0.905,0.833,1.438,1.115
	c0.356,0.186,0.711,0.363,1.059,0.55c0.04,0.016,0.081,0.04,0.121,0.056c0.04,0.024,0.088,0.048,0.137,0.073
	c0.678,0.356,1.456,0.711,2.004,1.245c0.023,0.024,0.049,0.057,0.072,0.081c0.484,0.565,0.646,1.212,0.68,1.349L23.435,22.046
	L23.435,22.046z M28.873,22.046c-0.35-1.487-1.516-2.575-2.8-3.243c0.136-0.064,0.212-0.092,0.341-0.156
	c0.574-0.291,0.867-0.447,1.109-1.062c0.227-0.566,0.233-0.63,0.267-1.22l-0.274-0.34c-0.211-0.298-0.363-1.446-0.363-1.446
	c-0.25,0-0.443-0.259-0.51-0.461c-0.104-0.323-0.201-0.622-0.242-0.961c-0.03-0.25-0.08-0.558,0.121-0.751
	c0.033-0.041,0.324-0.113,0.363-0.024c-0.031-0.057-0.072-1.592-0.072-1.592s-0.201-0.921-0.017-1.657
	c0.194-0.735,0.591-1.139,1.197-1.139c0,0,1.163-1.026,3.086-0.59c1.923,0.444,2.303,2.279,2.303,2.279l0.114,0.832l-0.381,0.275
	c0,0-0.041,1.535-0.064,1.592c0.041-0.089,0.331-0.016,0.363,0.024c0.203,0.194,0.146,0.501,0.121,0.751
	c-0.039,0.339-0.146,0.638-0.25,0.961c-0.064,0.202-0.26,0.461-0.501,0.461c0,0-0.161,1.147-0.364,1.446l-0.273,0.34
	c0.031,0.59,0.041,0.654,0.26,1.22c0.25,0.614,0.718,0.849,1.283,1.139c0.42,0.21,0.832,0.42,1.244,0.639
	c0.752,0.388,1.648,0.768,2.262,1.358c0.035,0.032,0.059,0.056,0.082,0.08c0.511,0.59,0.688,1.107,0.711,1.245H28.873z"/>
</svg>
