<?xml version="1.0" encoding="utf-8"?>
<!-- Generator: Adobe Illustrator 16.0.0, SVG Export Plug-In . SVG Version: 6.00 Build 0)  -->
<!DOCTYPE svg PUBLIC "-//W3C//DTD SVG 1.1//EN" "http://www.w3.org/Graphics/SVG/1.1/DTD/svg11.dtd">
<svg version="1.1" id="Calque_1" xmlns="http://www.w3.org/2000/svg" xmlns:xlink="http://www.w3.org/1999/xlink" x="0px" y="0px"
	 width="225px" height="225px" viewBox="0 0 225 225" enable-background="new 0 0 225 225" xml:space="preserve">
<g>
	<path fill="#AEDDDE" d="M196.476,125.873c-1.799-0.966-3.658-1.81-5.561-2.524c-1.089-0.314-2.168-0.662-3.228-1.068
		c-0.387-0.148-0.771-0.305-1.153-0.465c-7.682-3.221-14.422-8.865-18.926-16.625c-4.646-8.007-6.144-16.96-4.93-25.464
		c0.114-0.558-0.158-0.686-0.236-0.182c-1.002,3.988-2.566,7.907-4.72,11.646c-3.577,6.214-8.399,11.263-13.966,15.023
		c-2.728,1.842-5.637,3.366-8.666,4.572c-1.403,0.559-2.831,1.047-4.28,1.464c-4.634,1.855-8.939,4.584-12.64,8.117
		c2.842,2.622,5.345,5.707,7.389,9.227c1.899,3.273,3.274,6.704,4.155,10.198c1.421,5.638,1.553,11.439,0.501,17.002
		c-0.004,0.023-0.004,0.03-0.007,0.05c-0.554,2.691-0.876,5.433-0.938,8.194c-0.183,8.1,1.789,16.35,6.153,23.871
		c4.342,7.481,10.484,13.266,17.56,17.126c0.044,0.023,0.088,0.047,0.132,0.07c0.082,0.044,0.165,0.087,0.247,0.131
		c6.295,3.281,13.451,5.138,21.042,5.138c25.182,0,45.596-20.414,45.596-45.596C220,148.602,210.503,133.648,196.476,125.873z
		 M183.779,181.389c-5.615,3.259-12.273,3.095-17.564,0.155c-5.69-2.962-9.579-8.909-9.579-15.768
		c0-9.813,7.955-17.768,17.768-17.768c3.148,0,6.104,0.822,8.668,2.259c2.888,1.502,5.4,3.811,7.156,6.835
		C195.154,165.59,192.267,176.463,183.779,181.389z"/>
	<path fill="#74CACE" d="M152.512,35.446c-3.853-6.314-9.298-11.78-16.161-15.73C114.527,7.152,86.65,14.659,74.087,36.483
		c-3.578,6.214-5.522,12.919-5.978,19.621c-0.246,3.627-0.059,7.252,0.549,10.799c0.221,0.936,0.433,1.872,0.585,2.821
		c1.338,8.322,0.047,17.115-4.238,25.061c-0.176,0.327-0.349,0.655-0.536,0.979c-4.542,7.889-11.388,13.614-19.2,16.832
		c3.854-1.058,7.911-1.626,12.101-1.626c7.17,0,13.952,1.66,19.987,4.609c2.958,1.445,5.73,3.206,8.286,5.229
		c1.184,0.938,2.32,1.931,3.404,2.979c3.917,3.088,8.424,5.459,13.328,6.907c0.86-3.656,2.257-7.251,4.228-10.674
		c0.176-0.306,0.363-0.603,0.546-0.902c1.827-2.989,3.993-5.648,6.418-7.963c3.701-3.533,8.006-6.261,12.641-8.116
		c1.449-0.417,2.876-0.906,4.28-1.464c3.029-1.206,5.938-2.73,8.666-4.572c5.567-3.76,10.389-8.809,13.966-15.022
		C161.732,67.018,160.911,49.213,152.512,35.446z M129.002,68.096c-4.896,8.505-15.759,11.43-24.264,6.535
		c-8.505-4.896-11.43-15.76-6.534-24.264c4.896-8.504,15.759-11.43,24.264-6.534C130.972,48.729,133.897,59.592,129.002,68.096z"/>
	<path fill="#DCF0F0" d="M123.912,188.907c-4.364-7.521-6.336-15.771-6.153-23.871c0.062-2.761,0.385-5.503,0.939-8.194
		c0.003-0.02,0.002-0.027,0.007-0.05c1.051-5.563,0.92-11.364-0.501-17.002c-3.619,1.106-7.457,1.709-11.436,1.722
		c-0.043,0-0.086,0.003-0.129,0.003c-3.882,0-7.63-0.564-11.171-1.61c-4.903-1.448-9.411-3.819-13.327-6.907
		c-1.084-1.048-2.221-2.042-3.404-2.979c-2.556-2.023-5.329-3.784-8.286-5.229c-6.036-2.949-12.817-4.609-19.987-4.609
		c-4.19,0-8.247,0.568-12.101,1.627c-0.675,0.278-1.357,0.54-2.046,0.78c-0.021,0.008-0.027,0.012-0.046,0.019
		c-2.608,0.863-5.145,1.953-7.569,3.277c-7.11,3.885-13.275,9.711-17.613,17.247c-11.567,20.093-6.121,45.315,11.847,58.995
		c0.033,0.025,0.067,0.051,0.1,0.076c0.196,0.149,0.397,0.294,0.597,0.44c0.133,0.097,0.264,0.195,0.397,0.29
		c0.067,0.048,0.136,0.095,0.204,0.143c7.419,5.228,16.466,8.299,26.231,8.299c7.17,0,13.951-1.66,19.987-4.608
		c3.266-1.596,6.314-3.567,9.085-5.863c0.7-0.658,1.406-1.309,2.153-1.915c0.441-0.357,0.89-0.706,1.345-1.044
		c6.595-4.901,14.757-7.81,23.604-7.81c0.043,0,0.086,0.003,0.129,0.003c9.84,0.031,18.827,3.654,25.734,9.623
		c0.018,0.015,0.024,0.018,0.04,0.031c0.696,0.333,0.415-0.45,0.415-0.45C129.703,196.323,125.978,192.468,123.912,188.907z
		 M66.003,174.743c-4.896,8.504-15.759,11.43-24.264,6.534c-0.4-0.231-0.785-0.479-1.16-0.735c-0.04-0.026-0.079-0.053-0.118-0.08
		c-0.137-0.095-0.274-0.191-0.408-0.29c-4.456-3.229-7.357-8.472-7.357-14.396c0-9.813,7.955-17.768,17.768-17.768
		c3.882,0,7.471,1.249,10.394,3.361c0.077,0.054,0.153,0.107,0.229,0.162c0.008,0.006,0.016,0.012,0.024,0.019
		C68.33,156.831,70.568,166.812,66.003,174.743z"/>
</g>
</svg>
