<?xml version="1.0" encoding="utf-8"?>
<!-- Generator: Adobe Illustrator 16.0.0, SVG Export Plug-In . SVG Version: 6.00 Build 0)  -->
<!DOCTYPE svg PUBLIC "-//W3C//DTD SVG 1.1//EN" "http://www.w3.org/Graphics/SVG/1.1/DTD/svg11.dtd">
<svg version="1.1" id="Capa_1" xmlns="http://www.w3.org/2000/svg" xmlns:xlink="http://www.w3.org/1999/xlink" x="0px" y="0px"
	 width="50px" height="50px" viewBox="0 0 50 50" enable-background="new 0 0 50 50" xml:space="preserve">
<path d="M25,50c-0.039-0.051-0.075-0.1-0.113-0.15c-0.039,0.051-0.075,0.1-0.114,0.15H25z"/>
<g opacity="0.9">
	<path fill="#13A7AD" d="M42.717,17.717C42.717,7.932,34.785,0,25,0C15.216,0,7.283,7.932,7.283,17.717
		c0,1.912,0.308,3.753,0.868,5.479l0,0c0,0,1.491,6.693,16.737,26.656c8.73-11.433,12.947-18.506,14.959-22.471
		C41.66,24.602,42.717,21.283,42.717,17.717z"/>
	<g>
		<path fill="#AEDDDE" d="M34.768,17.3c-0.207-0.112-0.425-0.211-0.646-0.293c-0.125-0.037-0.253-0.077-0.374-0.124
			c-0.046-0.018-0.09-0.036-0.135-0.054c-0.895-0.375-1.68-1.032-2.202-1.934c-0.54-0.931-0.716-1.974-0.573-2.963
			c0.016-0.064-0.02-0.08-0.027-0.021c-0.115,0.464-0.297,0.919-0.547,1.355c-0.418,0.722-0.979,1.31-1.627,1.747
			c-0.318,0.214-0.656,0.392-1.008,0.532c-0.163,0.064-0.329,0.122-0.497,0.17c-0.539,0.215-1.04,0.532-1.471,0.944
			c0.331,0.304,0.622,0.663,0.858,1.072c0.224,0.38,0.381,0.78,0.483,1.187c0.166,0.656,0.183,1.331,0.058,1.978
			c0,0.002,0,0.003,0,0.006c-0.064,0.313-0.103,0.632-0.109,0.953c-0.021,0.943,0.209,1.902,0.717,2.776
			c0.505,0.871,1.221,1.544,2.041,1.992c0.006,0.004,0.012,0.006,0.018,0.008c0.01,0.006,0.02,0.012,0.027,0.018
			c0.732,0.381,1.564,0.597,2.448,0.597c2.929,0,5.303-2.373,5.303-5.304C37.504,19.943,36.4,18.204,34.768,17.3z M33.291,23.757
			c-0.652,0.379-1.428,0.359-2.042,0.019c-0.664-0.345-1.115-1.037-1.115-1.835c0-1.141,0.925-2.066,2.067-2.066
			c0.365,0,0.71,0.096,1.009,0.263c0.336,0.174,0.628,0.443,0.832,0.795C34.613,21.919,34.277,23.184,33.291,23.757z"/>
		<path fill="#74CACE" d="M29.654,6.782c-0.448-0.735-1.082-1.37-1.879-1.829c-2.541-1.462-5.781-0.588-7.243,1.95
			c-0.416,0.723-0.643,1.502-0.695,2.282c-0.029,0.421-0.007,0.844,0.064,1.256c0.026,0.109,0.05,0.218,0.068,0.329
			c0.156,0.968,0.005,1.991-0.493,2.915c-0.021,0.038-0.041,0.077-0.062,0.114c-0.529,0.918-1.325,1.583-2.233,1.958
			c0.448-0.123,0.92-0.189,1.408-0.189c0.834,0,1.622,0.193,2.325,0.536c0.344,0.168,0.666,0.373,0.963,0.609
			c0.138,0.108,0.27,0.224,0.396,0.346c0.456,0.359,0.98,0.636,1.55,0.804c0.1-0.426,0.262-0.844,0.491-1.243
			c0.021-0.036,0.042-0.07,0.063-0.105c0.213-0.348,0.465-0.657,0.747-0.926c0.431-0.411,0.933-0.728,1.472-0.943
			c0.17-0.049,0.334-0.106,0.497-0.17c0.353-0.14,0.69-0.318,1.009-0.532c0.646-0.438,1.207-1.024,1.625-1.747
			C30.727,10.455,30.631,8.383,29.654,6.782z M26.921,10.58c-0.569,0.989-1.835,1.329-2.824,0.76
			c-0.989-0.569-1.329-1.833-0.76-2.822c0.569-0.989,1.833-1.329,2.822-0.76C27.148,8.326,27.488,9.591,26.921,10.58z"/>
		<path fill="#DCF0F0" d="M26.328,24.631c-0.508-0.874-0.737-1.833-0.717-2.776c0.008-0.32,0.046-0.64,0.109-0.953
			c0-0.002,0-0.003,0.002-0.006c0.12-0.647,0.105-1.322-0.06-1.978c-0.422,0.128-0.868,0.199-1.331,0.201c-0.005,0-0.01,0-0.014,0
			c-0.452,0-0.888-0.066-1.3-0.188c-0.57-0.168-1.095-0.443-1.55-0.803c-0.125-0.122-0.259-0.237-0.396-0.346
			c-0.298-0.235-0.62-0.44-0.964-0.608c-0.702-0.343-1.491-0.537-2.325-0.537c-0.487,0-0.959,0.067-1.407,0.19
			c-0.078,0.032-0.158,0.062-0.238,0.091c-0.003,0-0.004,0-0.006,0.001c-0.303,0.1-0.597,0.227-0.879,0.381
			c-0.828,0.452-1.544,1.13-2.049,2.006c-1.345,2.337-0.712,5.271,1.378,6.862c0.003,0.003,0.007,0.006,0.011,0.01
			c0.022,0.018,0.046,0.033,0.069,0.051c0.016,0.012,0.031,0.021,0.046,0.035c0.008,0.004,0.017,0.008,0.024,0.014
			c0.863,0.609,1.915,0.967,3.051,0.967c0.834,0,1.623-0.191,2.325-0.535c0.381-0.188,0.734-0.416,1.057-0.684
			c0.082-0.075,0.165-0.15,0.251-0.223c0.051-0.042,0.104-0.082,0.156-0.119c0.767-0.572,1.716-0.911,2.746-0.911
			c0.004,0,0.009,0,0.014,0c1.145,0.004,2.189,0.425,2.993,1.12c0.003,0.002,0.004,0.002,0.006,0.004
			c0.082,0.037,0.048-0.054,0.048-0.054C27.002,25.493,26.566,25.045,26.328,24.631z M19.592,22.984
			c-0.569,0.99-1.833,1.33-2.822,0.76c-0.047-0.027-0.091-0.057-0.135-0.085c-0.005-0.004-0.009-0.007-0.014-0.01
			c-0.017-0.011-0.032-0.023-0.048-0.033c-0.518-0.376-0.856-0.986-0.856-1.676c0-1.141,0.926-2.066,2.067-2.066
			c0.452,0,0.869,0.145,1.209,0.391c0.008,0.006,0.017,0.012,0.026,0.019c0.001,0.001,0.002,0.002,0.003,0.002
			C19.862,20.9,20.123,22.062,19.592,22.984z"/>
	</g>
</g>
</svg>
